<svg id="Layer_1" data-name="Layer 1" xmlns="http://www.w3.org/2000/svg" viewBox="0 0 224.33 160.32"><defs><style>.cls-1{fill:url(#New_Gradient_Swatch_2)}.cls-2{fill:#8998f4}</style><linearGradient id="New_Gradient_Swatch_2" x1="133.73" y1="70.54" x2="218.36" y2="70.54" gradientUnits="userSpaceOnUse"><stop offset="0" stop-color="#3effff"/><stop offset=".99" stop-color="#8998f4"/></linearGradient></defs><title>logo</title><g id="_Group_" data-name="&lt;Group&gt;"><path id="_Compound_Path_" data-name="&lt;Compound Path&gt;" class="cls-1" d="M176 21.68l-42.27 24.43V95L176 119.4 218.36 95V46.11zm-1.93 45.51L168.59 64l5.52-9.57zm-1.93 3.35l-11 6.38 5.52-9.57zm1.93 3.35v16.62l-14.35-8.31zm3.87 0l14.39 8.31L178 90.51zm1.93-3.35l5.52-3.19 5.61 9.57zM178 67.19V54.44l5.5 9.56zm0-20.49V27.26l34.58 20-25.73 14.81zm-3.87 0l-8.87 15.36-25.73-14.84 34.58-20zm-10.8 18.71l-8.87 15.37-16.84 9.72V50.57zm-7.46 19L174.11 95v18.85l-34.58-20zM178 95l18.26-10.54 16.33 9.43-34.58 20zm19.67-14.19l-8.87-15.36 25.71-14.85v39.91z" transform="translate(-66.01 -21.68)"/></g><g id="_Group_2" data-name="&lt;Group&gt;"><path id="_Compound_Path_2" data-name="&lt;Compound Path&gt;" class="cls-2" d="M94.2 173.58H73.9l-3.07 8H66l14.64-38h6.45l15 38h-4.76zm-1.32-3.47L84 146.78l-8.9 23.33z" transform="translate(-66.01 -21.68)"/><path id="_Compound_Path_3" data-name="&lt;Compound Path&gt;" class="cls-2" d="M106.91 155H111l-.18 3.07a7.1 7.1 0 0 1 3.28-2.8 11.37 11.37 0 0 1 4.43-.84q4.28 0 6.24 1.9t2 5.89v.78a6.46 6.46 0 0 1-.06.82h-4.1a7.51 7.51 0 0 0 .06-1v-1q0-2.45-1.24-3.3a6.55 6.55 0 0 0-3.7-.85 7 7 0 0 0-4.91 1.54 6.05 6.05 0 0 0-1.66 4.66v17.7h-4.22z" transform="translate(-66.01 -21.68)"/><path id="_Compound_Path_4" data-name="&lt;Compound Path&gt;" class="cls-2" d="M150.58 171.93h4.16q0 6.15-2.71 8t-9.1 1.88q-8.92 0-10.69-3.44t-1.78-10.9q0-6.77 2.47-9.76t9.94-3a20.62 20.62 0 0 1 8 1.42q3.37 1.42 3.37 6.72v.4a.48.48 0 0 0-.06.23v.23h-4.1q0-3.59-1.54-4.67t-5.19-1.04q-5.6 0-7 1.67t-1.49 7.33v2.66a16 16 0 0 0 1.08 6.71q1.09 2.23 6.57 2.23 4.7 0 6.39-1.05t1.68-5.62z" transform="translate(-66.01 -21.68)"/><path id="_Compound_Path_5" data-name="&lt;Compound Path&gt;" class="cls-2" d="M160.34 181.61v-38h19.34q5.36 0 7.86 2T190 153a14.41 14.41 0 0 1-.87 5.38q-.87 2.14-4.27 3.27 4 1 5.19 3.16a11.88 11.88 0 0 1 1.21 5.83q0 5.12-2.17 8t-8.27 2.91zm4.52-21.4h12.71q4.46 0 6.14-1.37t1.69-5.49q0-3.48-1.29-4.74t-4.91-1.26h-14.34zm0 17.7h12.41q5.18 0 7.23-1t2-6a10.78 10.78 0 0 0-1-4.9q-1-2-4.79-2h-15.9z" transform="translate(-66.01 -21.68)"/><path id="_Compound_Path_6" data-name="&lt;Compound Path&gt;" class="cls-2" d="M201.36 143.65v38h-4.28v-38z" transform="translate(-66.01 -21.68)"/><path id="_Compound_Path_7" data-name="&lt;Compound Path&gt;" class="cls-2" d="M206.61 167.61q0-6.77 2.14-9.9t9.85-3.13q8.07 0 10.48 2.65t2.41 10.16A31.44 31.44 0 0 1 230 178q-1.48 4-10.15 4-7.53 0-10.39-2.22t-2.86-9.67zm4.4-.09V171q0 .66.06 1.28a19.16 19.16 0 0 0 .48 3.14 4.83 4.83 0 0 0 1.14 2.28 3.73 3.73 0 0 0 1.61.8 11.29 11.29 0 0 0 2 .29h2.81a12.77 12.77 0 0 0 5.59-1q1.94-1 2.18-4.73.06-.8.09-1.54t0-1.54c0-.5.06-1 .06-1.51v-1.51q0-4.91-1-7t-6.1-2.11h-.9q-5.44 0-6.79 1.6t-1.24 7.21z" transform="translate(-66.01 -21.68)"/><path id="_Compound_Path_8" data-name="&lt;Compound Path&gt;" class="cls-2" d="M257.15 171.93h4.16q0 6.15-2.71 8t-9.1 1.88q-8.91 0-10.69-3.44T237 167.49q0-6.77 2.47-9.76t9.94-3a20.62 20.62 0 0 1 8 1.42q3.37 1.42 3.37 6.72v.4a.48.48 0 0 0-.06.23v.23h-4.1q0-3.59-1.54-4.67t-5.16-1.06q-5.6 0-7 1.67t-1.5 7.33v2.66a16 16 0 0 0 1.08 6.71q1.09 2.23 6.57 2.23 4.7 0 6.39-1.05t1.69-5.62z" transform="translate(-66.01 -21.68)"/><path id="_Compound_Path_9" data-name="&lt;Compound Path&gt;" class="cls-2" d="M271.18 143.65v22.08h1.69L283 155h5.18l-12 12.23 14.15 14.34h-5.53l-11.93-12.8h-1.69v12.8h-4.28v-38z" transform="translate(-66.01 -21.68)"/></g></svg>